# xmcd CD Database Entry
#
# Track frame offsets:
# 150
# 8512
# 32714
# 66791
# 81638
# 125089
# 139424
# 163620
# 174081
# 197194
# 233688
# 247021
# 269372
# 288793
#
# Disc length: 4423 seconds
#
# Revision: 2
# Processed by: cddbd v1.4b41PL1 Copyright (c) Steve Scherf et al.
# Submitted via: tcd 2.0b
#
DISCID=c411450e
DTITLE=Bleepbloop - intellect - aesthetic                           
DTITLE=      
DYEAR=1900
DGENRE=
TTITLE0=intro
TTITLE1=herbert - see you monday
TTITLE2=aquarhythms - reversion (deep in the dub mix by dubtribe soun
TTITLE2=d system)
TTITLE3=josh brent - first heart beat
TTITLE4=azymuth - jazz carnival (global communication remix)
TTITLE5=terry lee brown jr - skylark
TTITLE6=espiritu - man don't cry (modwheel remix)
TTITLE7=mulu - pussycat (francois kavorkian dub)
TTITLE8=paul hester - the voyage pt. 2
TTITLE9=tom churchill - hot air
TTITLE10=tom churchill - widget beats
TTITLE11=pete moss - changing wave
TTITLE12=the timewriter - skywritings
TTITLE13=the modwheel - spirit catcher
EXTD=
EXTT0=
EXTT1=
EXTT2=
EXTT3=
EXTT4=
EXTT5=
EXTT6=
EXTT7=
EXTT8=
EXTT9=
EXTT10=
EXTT11=
EXTT12=
EXTT13=
PLAYORDER=
